<svg width="48" height="48" viewBox="0 0 48 48" fill="none" xmlns="http://www.w3.org/2000/svg">
<path d="M38.9876 24.612C38.9876 26.4803 39.0199 28.349 38.9802 30.2161C38.9264 33.1985 38.1467 36.1016 36.732 38.5865C35.7178 40.4475 34.3918 42.0503 32.8335 43.2988C31.2753 44.5473 29.517 45.4156 27.6641 45.8518C26.208 46.2263 24.7074 46.304 23.2286 46.0816C18.1456 45.308 14.4309 42.2305 12.0619 36.9463C11.2904 35.2085 10.8198 33.3104 10.677 31.3604C10.6263 30.7186 10.5955 30.0727 10.5937 29.4284C10.5855 26.1549 10.5844 22.8816 10.5905 19.6083C10.5801 18.8389 10.8196 18.0933 11.261 17.5214C11.7023 16.9495 12.3127 16.5935 12.9697 16.525C13.6267 16.4565 14.2816 16.6806 14.8029 17.1522C15.3241 17.6238 15.6731 18.308 15.7798 19.0674C15.8072 19.2916 15.8211 19.5178 15.8212 19.7443C15.8241 23.0615 15.8099 26.3786 15.8273 29.6954C15.8486 32.235 16.6582 34.6795 18.106 36.5761C19.5538 38.4727 21.5417 39.6928 23.7015 40.0105C25.7994 40.3073 27.9199 39.7324 29.6906 38.3867C31.4613 37.041 32.7691 35.0105 33.3843 32.6518C33.6409 31.6752 33.771 30.6594 33.7704 29.6379C33.772 26.3044 33.772 22.9699 33.7704 19.6344C33.781 17.1781 33.0521 14.7955 31.7107 12.9023C30.3694 11.009 28.5008 9.72541 26.431 9.2754C25.8945 9.16444 25.3508 9.10679 24.8059 9.10307C24.1216 9.1 23.4648 8.78762 22.9738 8.23155C22.4827 7.67549 22.1954 6.91901 22.1723 6.12105C22.1549 5.3131 22.4131 4.53012 22.8901 3.94411C23.3672 3.35809 24.0241 3.01695 24.7166 2.99563C27.8842 2.94338 30.9711 4.16182 33.4608 6.44711C36.287 8.94971 38.1898 12.6144 38.7822 16.6957C38.9057 17.5285 38.9716 18.3715 38.9791 19.2166C39.0082 21.0142 38.988 22.8119 38.988 24.6107L38.9876 24.612Z" fill="white"/>
<path d="M13.017 14.3582C12.3333 14.376 11.656 14.2011 11.0426 13.8483C9.74902 13.0631 9.17377 11.775 9.19573 10.1063C9.24504 8.5323 9.74204 7.02224 10.6083 5.81425C11.8263 3.89377 13.6068 2.56258 15.6113 2.07392C16.6218 1.78472 17.686 1.89549 18.6366 2.38882C19.2134 2.68317 19.7041 3.16758 20.0482 3.78261C20.3924 4.39764 20.5752 5.11652 20.5742 5.85103C20.6083 7.36485 20.2015 8.84743 19.4202 10.0567C18.2489 12.0922 16.4723 13.5486 14.4339 14.1442C14.2464 14.2021 14.0559 14.2456 13.8636 14.2743C13.5838 14.314 13.3004 14.3314 13.017 14.3582Z" fill="white"/>
</svg>
