<svg width="24" height="24" viewBox="0 0 24 24" fill="none" xmlns="http://www.w3.org/2000/svg">
<circle cx="12" cy="12" r="12" fill="#ECEFF1"/>
<path d="M16.6666 6.66666H7.33331C6.80288 6.66666 6.29417 6.87737 5.9191 7.25244C5.54403 7.62752 5.33331 8.13622 5.33331 8.66666V15.3333C5.33331 15.8638 5.54403 16.3725 5.9191 16.7475C6.29417 17.1226 6.80288 17.3333 7.33331 17.3333H16.6666C17.1971 17.3333 17.7058 17.1226 18.0809 16.7475C18.4559 16.3725 18.6666 15.8638 18.6666 15.3333V8.66666C18.6666 8.13622 18.4559 7.62752 18.0809 7.25244C17.7058 6.87737 17.1971 6.66666 16.6666 6.66666ZM16.22 7.99999L12 11.1667L7.77998 7.99999H16.22ZM16.6666 16H7.33331C7.1565 16 6.98693 15.9298 6.86191 15.8047C6.73688 15.6797 6.66665 15.5101 6.66665 15.3333V8.83332L11.6 12.5333C11.7154 12.6199 11.8557 12.6667 12 12.6667C12.1442 12.6667 12.2846 12.6199 12.4 12.5333L17.3333 8.83332V15.3333C17.3333 15.5101 17.2631 15.6797 17.1381 15.8047C17.013 15.9298 16.8435 16 16.6666 16Z" fill="#9EA7AA"/>
</svg>
