<svg width="24" height="24" viewBox="0 0 24 24" fill="none" xmlns="http://www.w3.org/2000/svg">
<circle cx="12" cy="12" r="12" fill="#FEC3CC"/>
<path d="M16.6667 6.66666H7.33337C6.80294 6.66666 6.29423 6.87737 5.91916 7.25244C5.54409 7.62752 5.33337 8.13622 5.33337 8.66666V15.3333C5.33337 15.8638 5.54409 16.3725 5.91916 16.7475C6.29423 17.1226 6.80294 17.3333 7.33337 17.3333H16.6667C17.1971 17.3333 17.7058 17.1226 18.0809 16.7475C18.456 16.3725 18.6667 15.8638 18.6667 15.3333V8.66666C18.6667 8.13622 18.456 7.62752 18.0809 7.25244C17.7058 6.87737 17.1971 6.66666 16.6667 6.66666ZM16.22 7.99999L12 11.1667L7.78004 7.99999H16.22ZM16.6667 16H7.33337C7.15656 16 6.98699 15.9298 6.86197 15.8047C6.73695 15.6797 6.66671 15.5101 6.66671 15.3333V8.83332L11.6 12.5333C11.7154 12.6199 11.8558 12.6667 12 12.6667C12.1443 12.6667 12.2846 12.6199 12.4 12.5333L17.3334 8.83332V15.3333C17.3334 15.5101 17.2631 15.6797 17.1381 15.8047C17.0131 15.9298 16.8435 16 16.6667 16Z" fill="#E01130"/>
</svg>
