<svg width="24" height="24" viewBox="0 0 24 24" fill="none" xmlns="http://www.w3.org/2000/svg">
<circle cx="12" cy="12" r="12" fill="#ECEFF1"/>
<path d="M12.6667 18.6667H10C9.82323 18.6667 9.65366 18.5964 9.52864 18.4714C9.40361 18.3464 9.33337 18.1768 9.33337 18V13.8667H8.00004C7.82323 13.8667 7.65366 13.7964 7.52864 13.6714C7.40361 13.5464 7.33337 13.3768 7.33337 13.2V10.8C7.33337 10.6232 7.40361 10.4536 7.52864 10.3286C7.65366 10.2036 7.82323 10.1333 8.00004 10.1333H9.33337V9C9.3801 7.98424 9.82712 7.0283 10.5767 6.34119C11.3263 5.65409 12.3174 5.29173 13.3334 5.33333H15.3334C15.5102 5.33333 15.6798 5.40357 15.8048 5.5286C15.9298 5.65362 16 5.82319 16 6V8.4C16 8.57681 15.9298 8.74638 15.8048 8.87141C15.6798 8.99643 15.5102 9.06667 15.3334 9.06667H13.3334V10.1333H15.3334C15.4363 10.1326 15.538 10.1556 15.6306 10.2007C15.7231 10.2458 15.8039 10.3118 15.8667 10.3933C15.9288 10.4761 15.9708 10.5722 15.9893 10.6741C16.0078 10.7759 16.0024 10.8806 15.9734 10.98L15.3067 13.38C15.2664 13.5242 15.1787 13.6506 15.0577 13.7389C14.9368 13.8272 14.7897 13.8722 14.64 13.8667H13.3334V18C13.3334 18.1768 13.2631 18.3464 13.1381 18.4714C13.0131 18.5964 12.8435 18.6667 12.6667 18.6667ZM10.6667 17.3333H12V13.2C12 13.0232 12.0703 12.8536 12.1953 12.7286C12.3203 12.6036 12.4899 12.5333 12.6667 12.5333H14.16L14.4534 11.4667H12.6667C12.4899 11.4667 12.3203 11.3964 12.1953 11.2714C12.0703 11.1464 12 10.9768 12 10.8V9C12.0172 8.65806 12.1652 8.33581 12.4134 8.1C12.6616 7.86419 12.991 7.73291 13.3334 7.73333H14.6667V6.66667H13.3334C12.6712 6.62633 12.0199 6.84869 11.5207 7.28551C11.0215 7.72233 10.7146 8.33838 10.6667 9V10.8C10.6667 10.9768 10.5965 11.1464 10.4714 11.2714C10.3464 11.3964 10.1769 11.4667 10 11.4667H8.66671V12.5333H10C10.1769 12.5333 10.3464 12.6036 10.4714 12.7286C10.5965 12.8536 10.6667 13.0232 10.6667 13.2V17.3333Z" fill="#9EA7AA"/>
</svg>
