<svg width="24" height="24" viewBox="0 0 24 24" fill="none" xmlns="http://www.w3.org/2000/svg">
<rect width="24" height="24" rx="12" fill="white"/>
<path d="M6 8H7.33333H18" stroke="#CFD8DC" stroke-linecap="round" stroke-linejoin="round"/>
<path d="M9.33301 7.99998V6.66665C9.33301 6.31302 9.47348 5.97389 9.72353 5.72384C9.97358 5.47379 10.3127 5.33331 10.6663 5.33331H13.333C13.6866 5.33331 14.0258 5.47379 14.2758 5.72384C14.5259 5.97389 14.6663 6.31302 14.6663 6.66665V7.99998M16.6663 7.99998V17.3333C16.6663 17.6869 16.5259 18.0261 16.2758 18.2761C16.0258 18.5262 15.6866 18.6666 15.333 18.6666H8.66634C8.31272 18.6666 7.97358 18.5262 7.72353 18.2761C7.47348 18.0261 7.33301 17.6869 7.33301 17.3333V7.99998H16.6663Z" stroke="#CFD8DC" stroke-linecap="round" stroke-linejoin="round"/>
<path d="M10.667 11.3333V15.3333" stroke="#CFD8DC" stroke-linecap="round" stroke-linejoin="round"/>
<path d="M13.333 11.3333V15.3333" stroke="#CFD8DC" stroke-linecap="round" stroke-linejoin="round"/>
</svg>
