<svg width="24" height="24" viewBox="0 0 24 24" fill="none" xmlns="http://www.w3.org/2000/svg">
<circle cx="12" cy="12" r="12" fill="#FEC3CC"/>
<path d="M14.9166 6.16666H9.08329C7.47246 6.16666 6.16663 7.47249 6.16663 9.08332V14.9167C6.16663 16.5275 7.47246 17.8333 9.08329 17.8333H14.9166C16.5275 17.8333 17.8333 16.5275 17.8333 14.9167V9.08332C17.8333 7.47249 16.5275 6.16666 14.9166 6.16666Z" stroke="#E01130" stroke-width="1.6" stroke-linecap="round" stroke-linejoin="round"/>
<path d="M14.3333 11.6325C14.4053 12.118 14.3224 12.6138 14.0964 13.0494C13.8703 13.4851 13.5127 13.8383 13.0743 14.059C12.6359 14.2796 12.1391 14.3564 11.6545 14.2785C11.17 14.2005 10.7224 13.9717 10.3753 13.6247C10.0283 13.2776 9.7995 12.83 9.72153 12.3455C9.64356 11.8609 9.72036 11.3641 9.94102 10.9257C10.1617 10.4873 10.5149 10.1297 10.9506 9.90363C11.3862 9.67759 11.882 9.59467 12.3675 9.66666C12.8627 9.74009 13.3212 9.97085 13.6751 10.3248C14.0291 10.6788 14.2599 11.1373 14.3333 11.6325Z" stroke="#E01130" stroke-width="1.5" stroke-linecap="round" stroke-linejoin="round"/>
<path d="M15.2084 8.79166H15.215" stroke="#E01130" stroke-width="1.5" stroke-linecap="round" stroke-linejoin="round"/>
</svg>
