<svg width="52" height="59" viewBox="0 0 52 59" fill="none" xmlns="http://www.w3.org/2000/svg">
<path d="M37.0834 19.9014C37.0834 21.2989 37.1084 22.6967 37.0777 24.0933C37.036 26.3241 36.4311 28.4957 35.3337 30.3544C34.547 31.7464 33.5184 32.9453 32.3096 33.8792C31.1009 34.8131 29.737 35.4626 28.2996 35.7889C27.1701 36.069 26.0061 36.1271 24.859 35.9608C20.9161 35.3821 18.0346 33.0802 16.1969 29.1275C15.5984 27.8276 15.2334 26.4078 15.1226 24.9492C15.0833 24.4692 15.0594 23.986 15.058 23.5041C15.0516 21.0555 15.0508 18.607 15.0555 16.1586C15.0475 15.5831 15.2332 15.0254 15.5756 14.5976C15.9179 14.1698 16.3915 13.9035 16.9011 13.8523C17.4107 13.801 17.9187 13.9686 18.3231 14.3214C18.7274 14.6741 18.9981 15.1859 19.0809 15.754C19.1022 15.9217 19.1129 16.0909 19.113 16.2603C19.1152 18.7416 19.1042 21.2228 19.1177 23.7038C19.1343 25.6034 19.7623 27.4319 20.8853 28.8506C22.0084 30.2692 23.5504 31.1819 25.2258 31.4196C26.8532 31.6416 28.4981 31.2115 29.8716 30.2049C31.2452 29.1983 32.2596 27.6795 32.7369 25.9152C32.9359 25.1847 33.0368 24.4249 33.0364 23.6608C33.0376 21.1673 33.0376 18.6731 33.0364 16.1781C33.0446 14.3408 32.4792 12.5586 31.4387 11.1424C30.3982 9.72629 28.9487 8.76614 27.3432 8.42952C26.927 8.34653 26.5052 8.30341 26.0825 8.30062C25.5517 8.29833 25.0423 8.06466 24.6613 7.64872C24.2804 7.23278 24.0575 6.66694 24.0396 6.07006C24.0261 5.46571 24.2264 4.88003 24.5965 4.44169C24.9665 4.00334 25.4761 3.74817 26.0133 3.73222C28.4704 3.69314 30.8649 4.60454 32.7962 6.31395C34.9885 8.18591 36.4645 10.9271 36.9241 13.98C37.0199 14.6029 37.071 15.2335 37.0768 15.8656C37.0994 17.2102 37.0837 18.5549 37.0837 19.9004L37.0834 19.9014Z" fill="#E01130"/>
<path d="M15.9447 47.9804C15.9076 48.033 15.8694 48.0846 15.8334 48.1381C15.4691 48.6793 15.1097 49.2246 14.7388 49.7597C14.6324 49.9141 14.5075 50.0513 14.3676 50.1671C14.2194 50.2974 14.0344 50.3633 13.8465 50.3527C13.6586 50.3421 13.4804 50.2557 13.3446 50.1093C13.2221 49.9802 13.1116 49.8375 13.0149 49.6833C12.6755 49.1702 12.3428 48.6518 12.0067 48.1359C11.9738 48.0852 11.9367 48.0379 11.8694 47.9452C11.8636 48.0861 11.8564 48.1739 11.8564 48.2617C11.8564 49.7436 11.8578 51.2258 11.8564 52.708C11.8837 53.0409 11.8035 53.3736 11.6306 53.6454C11.4576 53.9172 11.2034 54.1098 10.9145 54.188C10.7146 54.2581 10.5037 54.2799 10.2957 54.2521C10.0878 54.2243 9.88732 54.1475 9.70749 54.0267C9.52002 53.9112 9.36449 53.7398 9.25804 53.5313C9.15158 53.3228 9.09831 53.0853 9.1041 52.8449C9.0986 50.0503 9.0986 47.2557 9.1041 44.4611C9.10691 44.2521 9.13341 44.0444 9.18296 43.8429C9.22774 43.5926 9.3512 43.3689 9.5307 43.2127C9.71021 43.0566 9.93373 42.9784 10.1603 42.9925C10.4322 42.9807 10.7044 42.9936 10.9744 43.0312C11.3708 43.0961 11.7283 43.3349 11.9686 43.6955C12.5478 44.4942 13.108 45.3106 13.6757 46.1198C13.7683 46.2518 13.8606 46.3841 13.9628 46.5307C14.0062 46.479 14.0395 46.4463 14.0659 46.407C14.6191 45.6011 15.1715 44.7947 15.7233 43.9879C15.9805 43.54 16.3695 43.2082 16.8223 43.0507C17.1843 42.9521 17.5616 42.9492 17.9247 43.0423C18.1287 43.0893 18.3136 43.2096 18.4516 43.3849C18.5897 43.5603 18.6734 43.7813 18.6902 44.0148C18.7262 44.2524 18.7446 44.493 18.7452 44.7341C18.7486 47.3653 18.7493 49.9967 18.7471 52.6283C18.7471 53.4768 18.4432 53.9816 17.8027 54.1859C17.6083 54.2541 17.4036 54.2769 17.2011 54.2527C16.9986 54.2286 16.8027 54.1581 16.6253 54.0455C16.4324 53.9348 16.271 53.7651 16.1598 53.556C16.0485 53.3469 15.9918 53.1068 15.9961 52.8632C15.9865 51.3158 15.9898 49.7683 15.9881 48.2209V47.9965L15.9447 47.9804Z" fill="#E01130"/>
<path d="M33.9628 48.6372V44.7028C33.9434 44.2703 34.0761 43.8466 34.3322 43.5233C34.5883 43.2 34.9473 43.0031 35.3314 42.9752C36.2211 42.874 37.119 42.9138 37.9989 43.0933C40.025 43.5841 41.3052 44.9891 41.8025 47.2385C42.0002 48.0373 42.0402 48.8752 41.9195 49.6933C41.7988 50.5113 41.5203 51.2897 41.1038 51.9738C40.7368 52.6054 40.2466 53.1345 39.6705 53.5208C39.0944 53.9071 38.4475 54.1403 37.7791 54.2028C36.9243 54.2803 36.066 54.2963 35.2094 54.2508C35.037 54.25 34.8665 54.2092 34.7086 54.131C34.5508 54.0528 34.4089 53.9389 34.2919 53.7963C34.175 53.6537 34.0853 53.4856 34.0287 53.3023C33.972 53.1191 33.9495 52.9246 33.9625 52.7311C33.9612 51.3671 33.9613 50.0025 33.9628 48.6372ZM36.7366 51.1296C37.1526 51.1935 37.5762 51.1208 37.9564 50.9203C38.3366 50.7199 38.6573 50.4001 38.8798 49.9995C39.1198 49.562 39.2442 49.0568 39.2386 48.5427C39.233 48.0287 39.0976 47.527 38.8482 47.0963C38.6026 46.7419 38.2772 46.4677 37.9059 46.3021C37.5345 46.1365 37.1305 46.0855 36.7358 46.1544L36.7366 51.1296Z" fill="#E01130"/>
<path d="M16.9378 12.2316C16.4074 12.245 15.882 12.1141 15.4062 11.8502C14.4027 11.2629 13.9565 10.2994 13.9736 9.05117C14.0118 7.87382 14.3973 6.74429 15.0693 5.84071C16.0141 4.40417 17.3953 3.40844 18.9502 3.04292C19.734 2.8266 20.5595 2.90946 21.2969 3.27846C21.7444 3.49864 22.125 3.86098 22.3919 4.32103C22.6589 4.78107 22.8007 5.3188 22.7999 5.86822C22.8264 7.00056 22.5108 8.10954 21.9047 9.01408C20.9962 10.5366 19.618 11.626 18.0368 12.0715C17.8914 12.1149 17.7436 12.1474 17.5944 12.1689C17.3774 12.1986 17.1576 12.2116 16.9378 12.2316Z" fill="#E01130"/>
<path d="M23.4773 46.1482C23.749 45.6249 23.9994 45.1417 24.2508 44.6586C24.4088 44.3544 24.5651 44.0493 24.7256 43.747C24.8521 43.4646 25.0582 43.2373 25.3118 43.1008C25.5654 42.9643 25.852 42.9262 26.1269 42.9925C26.4309 43.0609 26.7088 43.2329 26.923 43.4852C27.1371 43.7374 27.2772 44.0576 27.3241 44.4023C27.3396 44.7445 27.2525 45.0826 27.0768 45.3624C26.369 46.6493 25.659 47.9346 24.9561 49.2264C24.8979 49.336 24.866 49.4607 24.8635 49.5883C24.8564 50.6461 24.8462 51.7045 24.8635 52.762C24.8704 52.9747 24.8361 53.1866 24.763 53.383C24.6899 53.5793 24.5797 53.7554 24.4401 53.8991C24.3005 54.0427 24.1347 54.1505 23.9544 54.215C23.7741 54.2795 23.5834 54.299 23.3957 54.2723C23.1025 54.2779 22.8169 54.1681 22.5879 53.962C22.359 53.7559 22.2012 53.4664 22.1417 53.1435C22.1155 52.9831 22.104 52.8202 22.1073 52.6572C22.1043 51.6372 22.1095 50.6199 22.1013 49.601C22.0991 49.4601 22.0643 49.3222 22.0004 49.201C21.3006 47.9238 20.5922 46.6524 19.8861 45.3798C19.7045 45.0968 19.6158 44.7519 19.6349 44.4036C19.6822 44.05 19.8279 43.7224 20.0512 43.4679C20.2745 43.2135 20.5638 43.0453 20.8774 42.9875C21.1515 42.9324 21.434 42.9804 21.6813 43.124C21.9287 43.2677 22.1271 43.499 22.2458 43.7823C22.6192 44.496 22.9877 45.2125 23.36 45.9278C23.3902 45.9862 23.4223 46.0465 23.4773 46.1482Z" fill="#E01130"/>
<path d="M30.0262 48.6225C30.0262 47.2518 30.0262 45.8814 30.0262 44.5112C30.0045 44.2092 30.0714 43.9075 30.2168 43.6524C30.3622 43.3972 30.5779 43.2028 30.8309 43.0989C31.104 42.9756 31.4029 42.944 31.6916 43.0078C31.9802 43.0716 32.2463 43.2281 32.4576 43.4584C32.6776 43.7332 32.793 44.0941 32.7791 44.4636C32.7807 47.237 32.7801 50.0103 32.7774 52.7834C32.7918 53.0904 32.7142 53.3939 32.5571 53.6454C32.4 53.8968 32.1724 54.0817 31.9108 54.1704C31.6301 54.2803 31.3268 54.2947 31.0389 54.2116C30.751 54.1286 30.4912 53.9519 30.2921 53.7037C30.1101 53.4377 30.016 53.1087 30.0262 52.7732V48.6225Z" fill="#E01130"/>
<path d="M29.0393 53.7395C29.0386 54.0478 28.9566 54.349 28.8038 54.6049C28.651 54.8609 28.4342 55.0602 28.1808 55.1776C27.9274 55.2951 27.6487 55.3254 27.38 55.2648C27.1112 55.2042 26.8645 55.0554 26.6709 54.8371C26.4773 54.6188 26.3456 54.3409 26.2923 54.0385C26.239 53.736 26.2666 53.4226 26.3715 53.1378C26.4764 52.8529 26.6541 52.6095 26.8819 52.4381C27.1098 52.2668 27.3777 52.1752 27.6517 52.175C27.8345 52.174 28.0156 52.2137 28.1846 52.292C28.3535 52.3703 28.507 52.4855 28.6361 52.6311C28.7652 52.7766 28.8673 52.9495 28.9365 53.1398C29.0057 53.3301 29.0407 53.5339 29.0393 53.7395Z" fill="#E01130"/>
</svg>
