<svg width="24" height="24" viewBox="0 0 24 24" fill="none" xmlns="http://www.w3.org/2000/svg">
<circle cx="12" cy="12" r="12" fill="#FEC3CC"/>
<path d="M9.67339 17.3333H9.62006C8.54563 17.3239 7.48674 17.0757 6.52006 16.6067C6.34224 16.5231 6.19583 16.3849 6.10226 16.2121C6.00869 16.0394 5.97288 15.8412 6.00006 15.6467C6.02962 15.4508 6.12032 15.2692 6.2592 15.128C6.39808 14.9867 6.57804 14.8929 6.77339 14.86C7.37247 14.7801 7.94878 14.5781 8.46673 14.2667C7.5675 13.5636 6.87523 12.6304 6.46327 11.5659C6.05132 10.5014 5.93503 9.34523 6.12673 8.22C6.15272 8.04177 6.22937 7.87476 6.34756 7.73884C6.46575 7.60293 6.6205 7.50383 6.79339 7.45334C6.9616 7.40051 7.14163 7.39825 7.31111 7.44684C7.48059 7.49544 7.63206 7.59274 7.74673 7.72667C8.13606 8.23719 8.62532 8.66304 9.18466 8.97825C9.744 9.29345 10.3617 9.49139 11.0001 9.56C11.0306 8.77457 11.3681 8.03248 11.9401 7.49334C12.2257 7.21985 12.5628 7.00594 12.9319 6.86408C13.301 6.72221 13.6947 6.65522 14.0899 6.667C14.4852 6.67879 14.8741 6.76913 15.2341 6.93274C15.5941 7.09636 15.9179 7.32998 16.1867 7.62C16.2568 7.68192 16.3438 7.72137 16.4365 7.73326C16.5292 7.74514 16.6233 7.72891 16.7067 7.68667C16.8657 7.6117 17.0427 7.58348 17.2171 7.6053C17.3915 7.62712 17.556 7.69808 17.6916 7.8099C17.8272 7.92172 17.9282 8.06979 17.9828 8.23684C18.0374 8.40389 18.0434 8.58302 18.0001 8.75334C17.8463 9.38675 17.555 9.97853 17.1467 10.4867C17.0567 12.3832 16.2206 14.1672 14.8207 15.4497C13.4207 16.7323 11.5705 17.4094 9.67339 17.3333ZM9.67339 16H9.72673C10.5018 16.0267 11.2745 15.8992 12 15.625C12.7255 15.3508 13.3893 14.9353 13.953 14.4026C14.5167 13.8699 14.9691 13.2306 15.2838 12.5218C15.5986 11.813 15.7695 11.0487 15.7867 10.2733C15.7977 10.0608 15.8854 9.85953 16.0334 9.70667C16.196 9.50083 16.3347 9.27718 16.4467 9.04C16.2066 9.04046 15.969 8.99022 15.7496 8.89258C15.5302 8.79493 15.3338 8.65207 15.1734 8.47334C15.0191 8.32037 14.8359 8.19972 14.6344 8.11845C14.4329 8.03717 14.2173 7.9969 14.0001 8C13.7807 7.99433 13.5623 8.03205 13.3575 8.11099C13.1527 8.18993 12.9656 8.30853 12.8067 8.46C12.5924 8.66334 12.4353 8.91938 12.3511 9.20251C12.2669 9.48565 12.2585 9.78594 12.3267 10.0733L12.5001 10.8333L11.7201 10.8867C10.9208 10.9518 10.1169 10.8425 9.36407 10.5662C8.61124 10.29 7.92745 9.85337 7.36006 9.28667C7.33573 10.1643 7.55526 11.0314 7.99426 11.7917C8.43325 12.552 9.07451 13.1757 9.84673 13.5933L10.4801 13.9533L10.0601 14.5533C9.60586 15.149 8.98352 15.5949 8.27339 15.8333C8.72894 15.9475 9.19711 16.0035 9.66673 16H9.67339Z" fill="#E01130"/>
</svg>
